<?xml version="1.0" encoding="UTF-8"?>
<svg id="_Слой_1" xmlns="http://www.w3.org/2000/svg" version="1.1" viewBox="0 0 158.81 54">
  <!-- Generator: Adobe Illustrator 30.3.0, SVG Export Plug-In . SVG Version: 2.1.3 Build 182)  -->
  <g id="_ТМС_монтажные_системы">
    <path d="M32.2,32.7c2.8-.9,5.5-2.2,7.9-3.8-2.6.2-5.3.6-8,1.1l-13.7,1.8v1.6c-2.7.8-5.3,2-7.7,3.6,2.9-.2,6-.6,9.1-1.1l12.4-1.7s0-1.5,0-1.5Z"/>
    <path d="M40.1,21.7c-3,.3-6.2.7-9.4,1.3l-12.4,1.6v1.5c-2.7.8-5.3,2-7.7,3.6,2.5-.2,5.1-.5,7.7-.9h0l13.8-1.8v-1.4c2.9-.9,5.5-2.2,8-3.9Z"/>
    <path d="M32.2,39.9c2.8-.9,5.5-2.2,7.9-3.9-2.8.3-5.7.6-8.5,1.2l-13.2,1.8v1.6c-2.7.9-5.3,2.1-7.7,3.6,3.4-.2,6.8-.7,10.1-1.3l11.4-1.5s0-1.5,0-1.5Z"/>
    <path d="M48.8.7H1.6c-.9,0-1.6.7-1.6,1.6h0v11.3c0,.9.7,1.6,1.6,1.6h16.8v6.3l13.8-1.8v-4.5h16.7c.9,0,1.6-.7,1.6-1.6h0V2.4c0-.9-.7-1.7-1.7-1.7h0Z"/>
    <path d="M40.1,43c-7.4.7-14.7,2.1-21.8,4.4.4.8.8,1.5,1.3,2.2l.1.2h0c1.3,1.9,3.2,3.4,5.3,4.2,2.5-1.7,4.4-4,5.6-6.7,3.5-.9,6.6-2.3,9.5-4.3Z"/>
    <path d="M110,49.4h-11.2c-.6,0-1-.4-1-1v-24.9l-8.9,25.3c-.1.4-.5.6-.9.7h-7.6c-.4,0-.8-.3-.9-.7l-8.7-24.8v24.5c0,.6-.4,1-1,1h-11.2c-.6,0-1-.4-1-1V1.7c0-.6.4-1,1-1h14.7c.4,0,.8.3.9.7l10,30.2L94.3,1.4c.1-.4.5-.7.9-.7h14.8c.6,0,1,.4,1,1v46.7c0,.6-.5,1-1,1Z"/>
    <path d="M139.5,50.1c-6.2,0-11.3-1.9-15.1-5.6s-5.7-8.6-5.7-14.6v-9.8c0-5.9,1.9-10.8,5.5-14.5s8.6-5.6,14.5-5.6c6.3,0,11.3,1.5,14.8,4.4s5.4,7.3,5.3,12.8c0,.1,0,.3-.1.4l-.1.2c-.2.3-.5.5-.9.5h-10.9c-.6,0-1-.4-1-1,0-2.6-.5-4.4-1.6-5.5s-2.9-1.6-5.5-1.6c-2-.1-3.9.8-5,2.5-1.3,2.2-2,4.7-1.9,7.3v9.8c-.1,2.6.6,5.1,2,7.3,1.3,1.7,3.4,2.7,5.6,2.6,2.3,0,3.9-.5,4.8-1.5s1.4-2.9,1.4-5.6c0-.6.4-1,1-1h10.9c.4,0,.8.3.9.7l.1.2c0,.1.1.2.1.3.1,5.6-1.6,9.9-5,12.9s-8,4.4-14.1,4.4h0Z"/>
  </g>
</svg>